nColumns=19
nRows=83
DataType=double
version=3
OpenSimVersion=4.1
endheader
time	ground_force_1_vx	ground_force_1_vy	ground_force_1_vz	ground_force_1_px	ground_force_1_py	ground_force_1_pz	ground_force_1_mx	ground_force_1_my	ground_force_1_mz	ground_force_2_vx	ground_force_2_vy	ground_force_2_vz	ground_force_2_px	ground_force_2_py	ground_force_2_pz	ground_force_2_mx	ground_force_2_my	ground_force_2_mz
0	-25.6821	235.943	-14.0806	0.238485	0.006	-0.0838111	0	-0.090268	0	0	0	0	0.695513	0	-0.296323	0	0	0
0.01	-33.465	261.748	-17.4992	0.243865	0.006	-0.0826781	0	-0.163481	0	0	0	0	0.695513	0	-0.296323	0	0	0
0.02	-42.2178	292.064	-21.5114	0.250212	0.006	-0.0814761	0	-0.24778	0	0	0	0	0.695513	0	-0.296323	0	0	0
0.03	-51.7691	326.589	-26.0852	0.256375	0.006	-0.0804411	0	-0.339719	0	0	0	0	0.695513	0	-0.296323	0	0	0
0.04	-61.8719	364.708	-31.1485	0.262205	0.006	-0.0795751	0	-0.436259	0	0	0	0	0.695513	0	-0.296323	0	0	0
0.05	-72.1925	405.476	-36.5848	0.26761	0.006	-0.0788651	0	-0.535006	0	0	0	0	0.695513	0	-0.296323	0	0	0
0.06	-82.3115	447.659	-42.2404	0.272543	0.006	-0.0782861	0	-0.634532	0	0	0	0	0.695513	0	-0.296323	0	0	0
0.07	-91.7654	489.856	-47.9453	0.276993	0.006	-0.0778111	0	-0.734918	0	0	0	0	0.695513	0	-0.296323	0	0	0
0.08	-100.131	530.691	-53.5457	0.280985	0.006	-0.0774101	0	-0.838169	0	0	0	0	0.695513	0	-0.296323	0	0	0
0.09	-107.075	568.933	-58.9063	0.284566	0.006	-0.0770551	0	-0.947056	0	0	0	0	0.695513	0	-0.296323	0	0	0
0.1	-112.369	603.522	-63.9012	0.287798	0.006	-0.0767251	0	-1.0633	0	0	0	0	0.695513	0	-0.296323	0	0	0
0.11	-115.887	633.564	-68.4096	0.290747	0.006	-0.0764031	0	-1.18695	0	0	0	0	0.695513	0	-0.296323	0	0	0
0.12	-117.607	658.351	-72.3241	0.293478	0.006	-0.0760751	0	-1.31673	0	0	0	0	0.695513	0	-0.296323	0	0	0
0.13	-117.594	677.394	-75.5573	0.296057	0.006	-0.0757301	0	-1.45031	0	0	0	0	0.695513	0	-0.296323	0	0	0
0.14	-115.989	690.447	-78.0468	0.298547	0.006	-0.0753611	0	-1.58477	0	0	0	0	0.695513	0	-0.296323	0	0	0
0.15	-112.977	697.506	-79.7617	0.301001	0.006	-0.0749611	0	-1.71694	0	0	0	0	0.695513	0	-0.296323	0	0	0
0.16	-108.769	698.798	-80.7027	0.303465	0.006	-0.0745271	0	-1.84375	0	0	0	0	0.695513	0	-0.296323	0	0	0
0.17	-103.579	694.743	-80.8997	0.305976	0.006	-0.0740531	0	-1.9626	0	0	0	0	0.695513	0	-0.296323	0	0	0
0.18	-97.6219	685.919	-80.4104	0.308563	0.006	-0.0735381	0	-2.07136	0	0	0	0	0.695513	0	-0.296323	0	0	0
0.19	-91.1071	673.014	-79.315	0.311254	0.006	-0.0729771	0	-2.16849	0	0	0	0	0.695513	0	-0.296323	0	0	0
0.2	-84.2387	656.789	-77.71	0.314076	0.006	-0.0723691	0	-2.25296	0	0	0	0	0.695513	0	-0.296323	0	0	0
0.21	-77.207	638.045	-75.6983	0.317051	0.006	-0.0717101	0	-2.32432	0	0	0	0	0.695513	0	-0.296323	0	0	0
0.22	-70.1832	617.589	-73.3823	0.320202	0.006	-0.0710021	0	-2.38293	0	0	0	0	0.695513	0	-0.296323	0	0	0
0.23	-63.314	596.206	-70.8604	0.323542	0.006	-0.0702451	0	-2.43017	0	0	0	0	0.695513	0	-0.296323	0	0	0
0.24	-56.7173	574.636	-68.2255	0.327077	0.006	-0.0694451	0	-2.46839	0	0	0	0	0.695513	0	-0.296323	0	0	0
0.25	-50.4801	553.56	-65.5627	0.330799	0.006	-0.0686111	0	-2.50073	0	0	0	0	0.695513	0	-0.296323	0	0	0
0.26	-44.6607	533.588	-62.9477	0.33469	0.006	-0.0677541	0	-2.5308	0	0	0	0	0.695513	0	-0.296323	0	0	0
0.27	-39.29	515.252	-60.446	0.338719	0.006	-0.0668921	0	-2.56235	0	0	0	0	0.695513	0	-0.296323	0	0	0
0.28	-34.3746	499.008	-58.1145	0.342841	0.006	-0.0660421	0	-2.59885	0	0	0	0	0.695513	0	-0.296323	0	0	0
0.29	-29.8982	485.23	-56.0039	0.347003	0.006	-0.0652291	0	-2.64283	0	0	0	0	0.695513	0	-0.296323	0	0	0
0.3	-25.8262	474.211	-54.1613	0.351145	0.006	-0.0644731	0	-2.69546	0	0	0	0	0.695513	0	-0.296323	0	0	0
0.31	-22.11	466.165	-52.6293	0.355203	0.006	-0.0637961	0	-2.7562	0	0	0	0	0.695513	0	-0.296323	0	0	0
0.32	-18.6912	461.22	-51.4446	0.35912	0.006	-0.0632141	0	-2.82287	0	0	0	0	0.695513	0	-0.296323	0	0	0
0.33	-15.5057	459.432	-50.6338	0.362845	0.006	-0.0627421	0	-2.89202	0	0	0	0	0.695513	0	-0.296323	0	0	0
0.34	-12.4857	460.776	-50.2119	0.366342	0.006	-0.0623851	0	-2.95934	0	0	0	0	0.695513	0	-0.296323	0	0	0
0.35	-9.56194	465.157	-50.1809	0.369595	0.006	-0.0621461	0	-3.02005	0	0	0	0	0.695513	0	-0.296323	0	0	0
0.36	-6.66584	472.4	-50.5316	0.3726	0.006	-0.0620181	0	-3.0692	0	0	0	0	0.695513	0	-0.296323	0	0	0
0.37	-3.73051	482.257	-51.2452	0.375372	0.006	-0.0619931	0	-3.10186	0	0	0	0	0.695513	0	-0.296323	0	0	0
0.38	-0.693023	494.41	-52.2937	0.37794	0.006	-0.0620561	0	-3.11329	0	0	0	0	0.695513	0	-0.296323	0	0	0
0.39	2.50349	508.479	-53.6391	0.380339	0.006	-0.0621951	0	-3.0992	0	0	0	0	0.695513	0	-0.296323	0	0	0
0.4	5.90791	524.032	-55.2315	0.382608	0.006	-0.0623961	0	-3.05607	0	0	0	0	0.695513	0	-0.296323	0	0	0
0.41	9.56064	540.591	-57.0084	0.384782	0.006	-0.0626481	0	-2.98141	0	0	0	0	0.695513	0	-0.296323	0	0	0
0.42	13.4927	557.64	-58.8953	0.386891	0.006	-0.0629421	0	-2.87387	0	0	0	0	0.695513	0	-0.296323	0	0	0
0.43	17.7239	574.634	-60.8081	0.388961	0.006	-0.0632731	0	-2.73326	0	0	0	0	0.695513	0	-0.296323	0	0	0
0.44	22.2612	591.004	-62.6571	0.391007	0.006	-0.0636361	0	-2.56055	0	0	0	0	0.695513	0	-0.296323	0	0	0
0.45	27.0974	606.159	-64.3501	0.39304	0.006	-0.0640261	0	-2.35803	0	0	0	0	0.695513	0	-0.296323	0	0	0
0.46	32.2102	619.495	-65.7946	0.395067	0.006	-0.0644431	0	-2.12944	0	0	0	0	0.695513	0	-0.296323	0	0	0
0.47	37.5598	630.403	-66.9002	0.39709	0.006	-0.0648851	0	-1.88009	0	0	0	0	0.695513	0	-0.296323	0	0	0
0.48	43.0854	638.276	-67.5803	0.39911	0.006	-0.0653521	0	-1.61679	0	0	0	0	0.695513	0	-0.296323	0	0	0
0.49	48.6999	642.528	-67.7538	0.401126	0.006	-0.0658431	0	-1.34774	0	0	0	0	0.695513	0	-0.296323	0	0	0
0.5	54.2865	642.601	-67.3477	0.40314	0.006	-0.0663591	0	-1.0823	0	0	0	0	0.695513	0	-0.296323	0	0	0
0.51	59.6964	637.986	-66.3011	0.405156	0.006	-0.0668991	0	-0.830307	0	8.0384	20.4861	-2.6226	0.695513	0.006	-0.296323	0	0.654733	0
0.52	64.7517	628.254	-64.5702	0.40718	0.006	-0.0674651	0	-0.60131	0	8.58712	33.5792	-2.32223	0.73326	0.006	-0.309404	0	0.675035	0
0.53	69.2529	613.085	-62.135	0.40922	0.006	-0.0680571	0	-0.40363	0	8.59045	49.5774	-1.86813	0.7598	0.006	-0.318049	0	0.685763	0
0.54	72.9882	592.306	-59.0063	0.411286	0.006	-0.0686741	0	-0.243466	0	7.81979	68.5198	-1.2277	0.777518	0.006	-0.32337	0	0.698278	0
0.55	75.7466	565.925	-55.2311	0.413387	0.006	-0.0693151	0	-0.124183	0	6.09046	90.3567	-0.36527	0.790808	0.006	-0.327015	0	0.719369	0
0.56	77.3316	534.158	-50.8932	0.415536	0.006	-0.0699771	0	-0.045796	0	3.38324	115.111	0.753299	0.801681	0.006	-0.329737	0	0.754372	0
0.57	77.5804	497.439	-46.1105	0.417745	0.006	-0.0706541	0	-0.004766	0	-0.216241	142.891	2.17941	0.811136	0.006	-0.331919	0	0.807838	0
0.58	76.3831	456.426	-41.0266	0.42003	0.006	-0.0713411	0	0.005477	0	-4.60483	173.796	3.99342	0.819686	0.006	-0.333772	0	0.884108	0
0.59	73.6974	411.996	-35.8022	0.422409	0.006	-0.0720301	0	-0.006425	0	-9.68855	207.84	6.29754	0.827609	0.006	-0.335419	0	0.987289	0
0.6	69.5635	365.228	-30.6021	0.424909	0.006	-0.0727121	0	-0.031095	0	-15.3794	244.911	9.2089	0.835055	0.006	-0.336936	0	1.12023	0
0.61	64.1191	317.359	-25.5808	0.427564	0.006	-0.0733771	0	-0.059941	0	-21.5723	284.744	12.836	0.842109	0.006	-0.338372	0	1.2829	0
0.62	57.6037	269.703	-20.8689	0.430427	0.006	-0.0740151	0	-0.086238	0	-28.1336	326.897	17.2416	0.84882	0.006	-0.339754	0	1.47091	0
0.63	50.338	223.577	-16.5663	0.433582	0.006	-0.0746161	0	-0.105332	0	-34.9113	370.78	22.4238	0.85522	0.006	-0.341094	0	1.676	0
0.64	42.6998	180.186	-12.7393	0.437167	0.006	-0.0751721	0	-0.114798	0	-41.7489	415.738	28.3241	0.861337	0.006	-0.342397	0	1.88804	0
0.65	35.0815	140.536	-9.42057	0.441424	0.006	-0.0756681	0	-0.114428	0	-48.5046	461.154	34.8398	0.867196	0.006	-0.343666	0	2.09669	0
0.66	27.8379	105.355	-6.61323	0.446805	0.006	-0.0760851	0	-0.105757	0	-55.0497	506.476	41.819	0.872817	0.006	-0.344894	0	2.29197	0
0.67	21.2416	75.0643	-4.30027	0.454216	0.006	-0.0763751	0	-0.09145	0	-61.2486	551.165	49.0527	0.87821	0.006	-0.346071	0	2.46474	0
0.68	15.4564	49.7753	-2.45191	0.465736	0.006	-0.0764121	0	-0.075193	0	-66.9525	594.62	56.2904	0.883375	0.006	-0.347183	0	2.60769	0
0.69	10.5467	29.3273	-1.02654	0.487335	0.006	-0.0758131	0	-0.06303	0	-72.0135	636.156	63.2739	0.888311	0.006	-0.348222	0	2.71628	0
0.7	0	0	0	0.520578	0	-0.0751531	0	0	0	-76.2893	674.994	69.7537	0.893014	0.006	-0.34918	0	2.78845	0
0.71	0	0	0	0.546204	0	-0.0756901	0	0	0	-79.6494	710.296	75.5048	0.897487	0.006	-0.350056	0	2.82437	0
0.72	0	0	0	0.57183	0	-0.0762261	0	0	0	-81.9848	741.218	80.344	0.901735	0.006	-0.350853	0	2.82628	0
0.73	0	0	0	0.597456	0	-0.0767631	0	0	0	-83.2205	766.959	84.1407	0.905767	0.006	-0.351576	0	2.79833	0
0.74	0	0	0	0.623082	0	-0.0773001	0	0	0	-83.3263	786.814	86.8227	0.909603	0.006	-0.352237	0	2.74645	0
0.75	0	0	0	0.648708	0	-0.0778371	0	0	0	-82.3167	800.222	88.3767	0.913265	0.006	-0.352848	0	2.678	0
0.76	0	0	0	0.674334	0	-0.0783741	0	0	0	-80.2456	806.821	88.8448	0.916779	0.006	-0.353425	0	2.60111	0
0.77	0	0	0	0.69996	0	-0.0789111	0	0	0	-77.199	806.473	88.316	0.920174	0.006	-0.353985	0	2.52364	0
0.78	0	0	0	0.725586	0	-0.0794481	0	0	0	-73.2897	799.278	86.9124	0.923478	0.006	-0.354541	0	2.45252	0
0.79	0	0	0	0.751212	0	-0.0799851	0	0	0	-68.6517	785.575	84.7723	0.92672	0.006	-0.355109	0	2.39346	0
0.8	0	0	0	0.776838	0	-0.0805221	0	0	0	-63.4347	765.933	82.0381	0.929927	0.006	-0.355701	0	2.35068	0
0.81	0	0	0	0.802464	0	-0.0810591	0	0	0	-57.7962	741.135	78.8479	0.933124	0.006	-0.356325	0	2.32682	0
0.82	0	0	0	0.82809	0	-0.0815961	0	0	0	-51.8928	712.147	75.3342	0.936335	0.006	-0.356988	0	2.32301	0
